<svg version="1.1" id="corporate" xmlns="http://www.w3.org/2000/svg" x="0" y="0" viewBox="0 0 434.6 52.9" style="enable-background:new 0 0 434.6 52.9" xml:space="preserve"><style>.st0{fill:#ed1b2f}</style><path class="st0" d="M341.6 51.1v-6.6l6.7-.7c2.3-.3 3.3-2.4 3.6-2.9l16.6-27.1c1.4-2.1 0-4-1.7-4.2l-8.8-1V1.9h37.9c2.1 0 3.5 1.5 4.3 2.7l22.1 33.8c1.7 2.7 3.1 4.8 5.3 5.1l7 .8v6.8H392v-6.7l5.4-.7c2.6-.3 4.7-1.5 2.6-4.6l-2.1-3.1h-30.2l-2.3 3.8c-1.4 2.3 0 3.7 2.2 4l5.4.7v6.7h-31.4m31.5-23.8h19.1l-9.6-15.2-9.5 15.2M313.3 1.9h-48.7v6.7l6.1.6c2.3.3 3.2 2 3.2 4.2v26.5c0 1.8-.8 3.6-2.8 3.9l-6.6.9v6.5h48.8c22.4 0 32.1-10.9 32.1-25.3 0-13-9.7-24-32.1-24m-7.5 39.8h-12.6V11.3h12.6c12 0 17 2.8 17 15.1 0 12.5-5 15.3-17 15.3M0 51.1h39.4v-6.6l-6.7-.8c-1.5-.2-3.1-1.2-3.1-4.5v-7.9h30.3v7.5c0 2.2-.4 4.3-3 4.6l-6.9.8V51h39.4v-6.8l-7-.8c-1.4-.2-2.9-1.3-2.9-4.1V13.9c0-2.6 1-4.4 3-4.6l6.9-.8V1.9H50.1v6.6l6.9.9c2.3.3 3 2.1 3 4.6v7.7H29.6v-7.8c0-2.9 1.1-4.3 3.2-4.5l6.7-.8V1.9H.1v6.7l6.6.8c2.6.3 3.3 2.2 3.2 4.7V39c0 2.8-.8 4.5-3.3 4.7l-6.6.9v6.5M91.4 26.3C91.4 10.8 103.9 0 131.7 0c27.6 0 40.1 10.8 40.1 26.3 0 15.9-12.5 26.6-40.1 26.6-27.8 0-40.3-10.8-40.3-26.6m40.2-16.8c-11.2 0-17.6 4.2-17.6 16.9 0 13 6.4 17.1 17.6 17.1 11.2 0 17.6-4.2 17.6-17.1 0-12.8-6.4-16.9-17.6-16.9M174 51.1h31.5v-6.6l-6.8-.8c-1.9-.2-3.1-1.8-3.1-4.1v-25l26.2 34.5c.9 1.1 2.5 1.9 4.1 1.9h24.7V13.8c0-1.8.5-4.1 3-4.5l6.9-.8V1.9H229v6.6l6.9.9c2.4.3 3 2.3 3 4.6v24.4l-26-34.3c-1-1.3-2.2-2.2-4.1-2.2H174v6.7l6.6.8c2.3.3 3.2 1.5 3.2 4.7V39c0 3-.8 4.4-3.3 4.7l-6.5.8v6.6"/></svg>